HIERARCHY
ROOT Hips
{
	OFFSET 0.000000 0.000000 0.000000 
	CHANNELS 6 Xposition Yposition Zposition Zrotation Yrotation Xrotation
	JOINT LeftUpLeg
	{
		OFFSET 1.363060 -1.794630 0.839290 
		CHANNELS 3 Zrotation Yrotation Xrotation
		JOINT LeftLeg
		{
			OFFSET 2.448110 -6.726130 0.000000 
			CHANNELS 3 Zrotation Yrotation Xrotation
			JOINT LeftFoot
			{
				OFFSET 2.562200 -7.039590 0.000000 
				CHANNELS 3 Zrotation Yrotation Xrotation
				JOINT LeftToeBase
				{
					OFFSET 0.157640 -0.433110 2.322550 
					CHANNELS 3 Zrotation Yrotation Xrotation
					End Site
					{
						OFFSET 0.000000 0.000000 0.000000 
					}
				}
			}
		}
	}
	JOINT RightUpLeg
	{
		OFFSET -1.305520 -1.794630 0.839290 
		CHANNELS 3 Zrotation Yrotation Xrotation
		JOINT RightLeg
		{
			OFFSET -2.542530 -6.985550 0.000000 
			CHANNELS 3 Zrotation Yrotation Xrotation
			JOINT RightFoot
			{
				OFFSET -2.568260 -7.056230 0.000000 
				CHANNELS 3 Zrotation Yrotation Xrotation
				JOINT RightToeBase
				{
					OFFSET -0.164730 -0.452590 2.363150 
					CHANNELS 3 Zrotation Yrotation Xrotation
					End Site
					{
						OFFSET 0.000000 0.000000 0.000000 
					}
				}
			}
		}
	}
	JOINT Spine
	{
		OFFSET 0.028270 2.035590 -0.193380 
		CHANNELS 3 Zrotation Yrotation Xrotation
		JOINT Spine1
		{
			OFFSET 0.056720 2.048850 -0.042750 
			CHANNELS 3 Zrotation Yrotation Xrotation
			JOINT Neck1
			{
				OFFSET -0.054170 1.746240 0.172020 
				CHANNELS 3 Zrotation Yrotation Xrotation
				JOINT Head
				{
					OFFSET 0.104070 1.761360 -0.123970 
					CHANNELS 3 Zrotation Yrotation Xrotation
					End Site
					{
						OFFSET 0.000000 0.000000 0.000000 
					}
				}
			}
			JOINT LeftArm
			{
				OFFSET 3.362410 1.200890 -0.311210 
				CHANNELS 3 Zrotation Yrotation Xrotation
				JOINT LeftForeArm
				{
					OFFSET 4.983000 -0.000000 -0.000000 
					CHANNELS 3 Zrotation Yrotation Xrotation
					JOINT LeftHand
					{
						OFFSET 3.483560 -0.000000 -0.000000 
						CHANNELS 3 Zrotation Yrotation Xrotation
						JOINT LeftHandIndex1
						{
							OFFSET 0.715260 -0.000000 -0.000000 
							CHANNELS 3 Zrotation Yrotation Xrotation
							End Site
							{
								OFFSET 0.000000 0.000000 0.000000 
							}
						}
					}
				}
			}
			JOINT RightArm
			{
				OFFSET -3.136600 1.374050 -0.404650 
				CHANNELS 3 Zrotation Yrotation Xrotation
				JOINT RightForeArm
				{
					OFFSET -5.241900 -0.000000 -0.000000 
					CHANNELS 3 Zrotation Yrotation Xrotation
					JOINT RightHand
					{
						OFFSET -3.444170 -0.000000 -0.000000 
						CHANNELS 3 Zrotation Yrotation Xrotation
						JOINT RightHandIndex1
						{
							OFFSET -0.622530 -0.000000 -0.000000 
							CHANNELS 3 Zrotation Yrotation Xrotation
							End Site
							{
								OFFSET 0.000000 0.000000 0.000000 
							}
						}
					}
				}
			}
		}
	}
}
MOTION
Frames: 17
Frame Time: 0.041667
3.309309 17.859315 -46.517594 0.555430 -0.212815 17.105855 -25.808426 -9.249935 -7.487683 -1.003599 4.712260 15.571184 -1.202894 6.816565 -8.493401 0.067800 1.680100 4.622400 10.785784 23.137627 -43.733822 -0.813831 -9.377931 23.041374 4.624438 -18.840434 0.628742 -0.174500 2.691100 -7.419800 4.506420 -1.942889 -4.736855 0.398311 -0.540684 -3.239183 4.947930 -2.827356 13.301128 2.317100 -1.440100 8.990600 -86.083064 -3.703009 41.613708 19.286081 -20.004498 -4.575432 -0.016959 0.194324 -9.502391 -7.125000 0.000000 0.000000 84.047293 -6.181357 27.851408 -23.025366 21.689582 -5.515927 0.686488 -0.787767 0.203156 7.125000 0.000000 0.000000 
3.295029 17.859315 -46.425138 0.660778 -0.265142 17.079841 -25.871350 -8.892954 -6.841453 -1.083408 4.436873 14.861125 -1.194953 6.742979 -8.251473 0.048100 1.415600 3.893200 10.071602 23.866832 -43.470751 -0.702220 -9.081002 22.159570 4.783241 -19.392090 0.917702 -0.289600 3.460700 -9.564200 4.252201 -1.667226 -5.132270 0.478396 -0.406347 -3.672337 4.823322 -3.129460 13.589203 2.216500 -1.571900 9.143500 -85.946031 -3.659365 42.155712 19.281161 -20.026223 -4.595056 -0.023177 0.196896 -9.576604 -7.125000 0.000000 0.000000 84.368712 -6.562826 27.051646 -23.025088 21.748841 -5.577997 0.734221 -0.722151 0.305018 7.125000 0.000000 0.000000 
3.286297 17.853973 -46.347783 0.749233 -0.336892 17.459769 -25.912153 -8.851488 -6.663732 -1.148397 4.241764 14.323031 -1.241823 6.866066 -8.084568 0.044700 1.364800 3.753200 9.420086 24.318261 -43.765609 -0.605874 -8.843117 21.387296 4.887187 -19.834726 1.390373 -0.381600 3.967000 -10.984000 4.143479 -1.595126 -5.972610 0.492177 -0.395316 -3.791954 4.909034 -3.101990 13.376632 2.276900 -1.573000 8.877600 -85.998942 -3.166024 42.004829 19.306339 -20.086652 -4.610665 -0.027247 0.189806 -9.418078 -7.125000 0.000000 0.000000 84.546745 -7.236684 27.041212 -23.029098 21.728793 -5.556748 0.711333 -0.749893 0.278631 7.125000 0.000000 0.000000 
3.273559 17.853049 -46.258101 0.787174 -0.031462 17.444967 -25.826359 -8.783543 -6.053670 -1.207204 4.025949 13.774571 -1.225640 6.775672 -7.888961 0.022300 0.964000 2.649700 9.038275 24.562259 -43.520247 -0.521943 -8.608145 20.673254 5.048302 -20.409766 1.691575 -0.393500 4.027700 -11.154500 4.105487 -1.710374 -6.233553 0.488651 -0.466716 -3.769664 4.981895 -3.138803 13.146315 2.315800 -1.599100 8.642600 -85.996512 -2.870145 41.713921 19.318902 -20.114799 -4.613786 -0.022128 0.186637 -9.166807 -7.125000 0.000000 0.000000 84.687430 -7.677113 26.989304 -23.046809 21.750235 -5.572661 0.712188 -0.746950 0.411487 7.125000 0.000000 0.000000 
3.257841 17.832092 -46.170678 0.808011 0.371389 17.712703 -25.646309 -8.783832 -5.967528 -1.234290 3.929572 13.526190 -1.134738 6.451634 -7.706455 0.029300 1.104800 3.037100 8.717723 24.589595 -43.700382 -0.452019 -8.374754 19.866481 5.200586 -21.282620 3.186560 -0.419500 4.157000 -11.518700 4.157196 -1.936939 -5.673300 0.428144 -0.581192 -3.514004 5.049002 -3.200870 13.789187 2.318000 -1.594700 9.217700 -85.795254 -3.868215 41.414623 19.321631 -20.061538 -4.600964 -0.013275 0.204310 -9.339563 -7.125000 0.000000 0.000000 84.455208 -6.896113 27.045794 -23.052268 21.761211 -5.579612 0.718404 -0.741964 0.490887 7.125000 0.000000 0.000000 
3.249828 17.828805 -46.094556 0.683381 -0.204143 17.834581 -25.674133 -8.503751 -5.784479 -1.257929 3.843735 13.302101 -1.219577 6.734833 -7.777456 0.029600 1.110700 3.053600 8.342081 25.214417 -43.645907 -0.339131 -8.115898 19.259853 4.844678 -19.946602 2.702050 -0.272200 3.355700 -9.270700 4.238773 -1.600203 -6.335987 0.489813 -0.426048 -3.574160 5.065042 -3.093823 13.175463 2.358000 -1.573200 8.674900 -85.963306 -3.180653 41.400873 19.347888 -20.137789 -4.631546 -0.025474 0.201007 -9.476790 -7.125000 0.000000 0.000000 84.547965 -7.746712 27.070461 -23.116767 21.846293 -5.630946 0.714200 -0.738791 0.442568 7.125000 0.000000 0.000000 
3.229180 17.803533 -46.000354 0.722381 -0.093715 17.994217 -25.597174 -8.478953 -5.560573 -1.270519 3.791028 13.167247 -1.225019 6.732636 -7.649792 0.030900 1.134500 3.119000 8.683473 24.869523 -43.645439 -0.293137 -7.938293 18.607568 4.870971 -20.649247 4.910100 -0.814800 5.760100 -16.090000 4.002782 -1.601418 -6.931566 0.440182 -0.448501 -3.611535 5.159721 -3.131984 12.766889 2.399700 -1.598900 8.314000 -85.869172 -2.636488 41.246356 19.298233 -20.108701 -4.623616 -0.030339 0.211182 -9.211262 -7.125000 0.000000 0.000000 84.894168 -8.366026 26.890213 -23.056916 21.764912 -5.601958 0.699394 -0.756351 0.499972 7.125000 0.000000 0.000000 
3.208737 17.790898 -45.902762 0.735669 -0.025310 17.978754 -25.520789 -8.241895 -5.132825 -1.306346 3.626987 12.769137 -1.174332 6.522538 -7.408238 0.018600 0.879800 2.418100 8.802622 24.790182 -43.689626 -0.277866 -7.880426 18.417283 4.833073 -20.718255 5.542942 -1.001100 6.367100 -17.853200 4.176531 -1.687807 -6.000087 0.423399 -0.467753 -3.970836 5.235543 -3.309141 14.618625 2.405800 -1.621700 9.788800 -85.748331 -4.438428 40.701090 19.213972 -19.894248 -4.550338 -0.036418 0.241166 -8.951930 -7.125000 0.000000 0.000000 84.367173 -6.764423 26.889832 -22.822640 21.487635 -5.465740 0.666501 -0.809048 0.427367 7.125000 0.000000 0.000000 
3.190451 17.794493 -45.801779 0.806942 0.111151 17.985095 -25.494530 -7.976883 -4.638118 -1.340613 3.453453 12.355408 -1.070273 6.139177 -7.134817 0.013000 0.735700 2.022000 8.485724 25.020391 -43.603740 -0.270192 -7.865569 18.418871 4.869691 -20.608121 4.837903 -0.773700 5.616300 -15.675100 4.096387 -1.746832 -5.338287 0.448903 -0.493458 -3.162454 5.482016 -3.322055 13.920598 2.521600 -1.628100 9.391600 -85.633523 -4.779432 40.417245 19.168248 -19.792217 -4.509108 -0.012694 0.246402 -8.719295 -7.125000 0.000000 0.000000 84.387930 -6.465000 26.712238 -22.693446 21.328826 -5.412683 0.668407 -0.819141 0.565315 7.125000 0.000000 0.000000 
3.166310 17.816066 -45.699153 0.913210 0.629095 18.093779 -25.373017 -7.802119 -4.217625 -1.362781 3.344911 12.074918 -0.977802 5.794545 -6.794821 0.000200 0.084200 0.231300 7.567411 25.730129 -43.292502 -0.261221 -7.900227 18.683984 4.899863 -19.938003 2.031233 -0.143000 2.437000 -6.714900 4.234988 -1.890505 -6.661844 0.636130 -0.585873 -3.755649 5.402614 -3.323485 14.030583 2.513300 -1.659300 9.178300 -85.886340 -3.699953 40.126959 19.190557 -19.859467 -4.511528 -0.000278 0.219817 -8.685989 -7.125000 0.000000 0.000000 84.536786 -7.615491 26.755369 -22.676750 21.352198 -5.455950 0.737410 -0.742486 0.581707 7.125000 0.000000 0.000000 
3.136621 17.817093 -45.592109 0.896735 1.172258 17.864239 -25.113266 -7.513876 -3.477738 -1.390062 3.188079 11.697496 -0.933697 5.593853 -6.435765 0.007700 -0.566300 -1.556100 7.782144 25.675925 -42.825680 -0.294526 -8.001018 18.992118 5.170672 -20.586088 0.977961 -0.148800 2.485900 -6.850500 4.294704 -2.077614 -7.240870 0.713012 -0.688925 -4.144310 5.266862 -3.361595 13.965919 2.455600 -1.697000 8.965400 -85.957342 -2.968635 39.883629 19.162704 -19.859092 -4.503403 -0.000663 0.215611 -8.496245 -7.125000 0.000000 0.000000 84.748799 -8.379775 26.831358 -22.663843 21.333827 -5.449207 0.716558 -0.763959 0.563784 7.125000 0.000000 0.000000 
3.122445 17.794082 -45.510337 0.689726 0.237372 18.577600 -25.085957 -7.276286 -3.953206 -1.419844 3.098443 11.422497 -1.145681 6.241474 -6.116284 0.025000 -1.020500 -2.805200 8.009977 25.819327 -44.101384 -0.330856 -8.139234 19.342164 4.766983 -19.520019 1.895321 -0.140700 2.417700 -6.661500 4.174378 -1.689081 -6.577726 0.585173 -0.500371 -3.261819 5.277892 -3.460388 13.893902 2.423800 -1.721200 9.119800 -85.673706 -3.978009 39.565263 19.168589 -19.806967 -4.491539 0.005712 0.235627 -8.501453 -7.125000 0.000000 0.000000 84.659665 -7.333259 26.527150 -22.501481 21.142006 -5.387112 0.723690 -0.767574 0.658904 7.125000 0.000000 0.000000 
3.091215 17.790384 -45.383878 0.907787 1.308957 18.195637 -24.904354 -7.379168 -2.920175 -1.427992 2.996959 11.211219 -0.957788 5.567570 -5.684461 0.047900 -1.412900 -3.885800 8.105928 25.433573 -43.308810 -0.390334 -8.266953 19.675114 5.025259 -20.340507 1.817293 -0.173300 2.681600 -7.393500 4.304830 -2.100573 -7.459333 0.811518 -0.713294 -3.824342 5.241792 -3.422191 13.715727 2.439200 -1.732900 8.761700 -85.879626 -2.945541 39.390499 19.168100 -19.858909 -4.501757 -0.004867 0.225264 -8.587698 -7.125000 0.000000 0.000000 84.872084 -8.280651 26.271011 -22.342069 20.976158 -5.336551 0.727501 -0.769755 0.806047 7.125000 0.000000 0.000000 
3.064506 17.775283 -45.261528 0.875069 1.200552 18.196661 -24.797447 -7.066234 -2.919231 -1.384327 3.116471 11.578252 -0.864075 5.270274 -5.826060 0.068100 -1.684200 -4.633700 8.690014 24.993000 -43.315118 -0.427214 -8.356349 19.949971 4.816561 -19.840442 2.626678 -0.187400 2.787900 -7.688900 4.416230 -2.155843 -5.650320 0.754314 -0.703397 -3.428681 5.288472 -3.628152 15.276543 2.401800 -1.753800 10.216100 -85.512674 -5.329793 38.882377 19.117763 -19.654031 -4.433093 0.008121 0.256614 -8.953954 -7.125000 0.000000 0.000000 84.249957 -5.943928 26.068894 -22.058207 20.661448 -5.216388 0.762370 -0.757408 0.907329 7.125000 0.000000 0.000000 
3.031941 17.773126 -45.134452 1.009323 1.593245 17.916475 -24.719190 -6.749005 -2.130200 -1.384703 3.037219 11.428732 -0.776522 4.955398 -5.682472 0.110400 -2.142800 -5.900600 8.990431 24.792309 -42.693138 -0.504765 -8.517943 20.422779 4.910666 -20.186970 2.810952 -0.157000 2.553200 -7.037200 4.203917 -2.283513 -6.007190 0.812831 -0.774610 -3.516135 5.415299 -3.672914 14.806497 2.461200 -1.784900 9.773500 -85.461137 -4.604620 38.811832 19.070171 -19.630315 -4.407929 0.005848 0.246053 -9.200140 -7.125000 0.000000 0.000000 84.614085 -6.810183 26.001860 -22.228686 20.809228 -5.226211 0.707318 -0.811760 1.009147 7.125000 0.000000 0.000000 
3.016326 17.744259 -45.044462 0.868411 0.171282 18.694553 -24.980358 -6.247546 -2.618138 -1.386880 3.044801 11.401479 -0.985355 5.651186 -5.669011 0.128800 -2.313300 -6.372400 9.488849 24.842363 -43.843843 -0.566635 -8.716080 20.938319 4.343282 -18.807768 4.505503 -0.161900 2.592000 -7.144900 3.924945 -1.524865 -7.640503 0.785465 -0.430871 -3.805226 5.426595 -3.718986 14.536657 2.479200 -1.831900 9.364100 -85.591430 -3.426592 38.804353 19.087982 -19.721179 -4.434683 -0.003045 0.234320 -9.285132 -7.125000 0.000000 0.000000 84.959361 -8.056975 25.908827 -22.439637 21.085917 -5.367674 0.747290 -0.743897 0.872687 7.125000 0.000000 0.000000 
2.973899 17.758333 -44.916667 1.073412 1.063731 18.398218 -24.757199 -6.273859 -1.927131 -1.372988 3.021332 11.399386 -0.783906 4.904908 -5.056634 0.196100 -2.851400 -7.865400 9.650125 24.518194 -43.259778 -0.679248 -8.928166 21.480146 4.751122 -20.183725 4.509564 -0.105800 2.097100 -5.774100 4.250096 -2.092118 -7.301017 1.019707 -0.706260 -3.339606 5.688804 -3.547222 13.851272 2.670200 -1.783800 8.891000 -85.762325 -3.135204 38.073992 19.190351 -19.847791 -4.475443 0.000079 0.231745 -9.227396 -7.125000 0.000000 0.000000 84.768357 -8.137755 26.309522 -22.347661 20.953333 -5.303478 0.722427 -0.789159 0.851197 7.125000 0.000000 0.000000 
